<?xml version="1.0" encoding="iso-8859-1"?>
<!-- Uploaded to: SVG Repo, www.svgrepo.com, Generator: SVG Repo Mixer Tools -->
<!DOCTYPE svg PUBLIC "-//W3C//DTD SVG 1.1//EN" "http://www.w3.org/Graphics/SVG/1.1/DTD/svg11.dtd">
<svg fill="#000000" height="25px" width="25px" version="1.1" id="Capa_1" xmlns="http://www.w3.org/2000/svg" xmlns:xlink="http://www.w3.org/1999/xlink" 
	 viewBox="0 0 435.207 435.207" xml:space="preserve">
<path d="M425.207,46.576h-68.643c-0.007,0-0.013-0.001-0.019-0.001c-0.007,0-0.013,0.001-0.019,0.001h-57.844
	c-0.007,0-0.013-0.001-0.019-0.001c-0.007,0-0.013,0.001-0.019,0.001H136.564c-0.007,0-0.013-0.001-0.019-0.001
	c-0.007,0-0.013,0.001-0.019,0.001H78.681c-0.007,0-0.013-0.001-0.019-0.001s-0.013,0.001-0.019,0.001H10c-5.523,0-10,4.478-10,10
	v74.292c0,5.522,4.477,10,10,10h27.604v237.765c0,5.522,4.478,10,10,10s10-4.478,10-10v-20h320v20c0,5.522,4.478,10,10,10
	c5.523,0,10-4.478,10-10V140.868h27.604c5.522,0,10-4.478,10-10V56.576C435.207,51.053,430.729,46.576,425.207,46.576z
	 M308.662,120.868V66.576h37.883v54.292H308.662z M146.545,120.868V66.576h142.117v54.292H146.545z M88.662,120.868V66.576h37.883
	v54.292H88.662z M20,66.576h48.662v54.292H20V66.576z M377.603,338.632h-320V140.868h320V338.632z M415.207,120.868h-48.662V66.576
	h48.662V120.868z"/>
</svg>